0.16m3min_grf.mot
version=1
nRows=10
nColumns 19
inDegrees=yes
endheader
time	1_ground_force_vx	1_ground_force_vy	1_ground_force_vz	1_ground_force_px	1_ground_force_py	1_ground_force_pz	1_ground_torque_x	1_ground_torque_y	1_ground_torque_z	2_ground_force_vx	2_ground_force_vy	2_ground_force_vz	2_ground_force_px	2_ground_force_py	2_ground_force_pz	2_ground_torque_x	2_ground_torque_y	2_ground_torque_z
            1.222500	          -55.707457	         1000.334476	          -91.551584	           -0.261878	            0.006259	           -0.414975	           -0.085631	            1.537663	           -0.140728	           13.282516	         1016.426015	           92.783826	           -0.301249	            0.005535	           -0.736605	           -0.021029	           -1.609177	           -0.146893
            1.223000	          -52.958142	          990.425734	          -92.839037	           -0.261554	            0.006260	           -0.415129	           -0.099591	            1.862553	           -0.174589	           10.078690	         1008.136455	           90.268451	           -0.300950	            0.005536	           -0.736493	           -0.017041	           -1.704547	           -0.152625
            1.223500	          -49.704989	          981.058446	          -94.262994	           -0.261498	            0.006260	           -0.415070	           -0.078108	            1.541665	           -0.148128	            6.497846	         1000.399989	           87.238991	           -0.300621	            0.005537	           -0.736407	           -0.007958	           -1.225231	           -0.106845
            1.224000	          -47.321021	          972.228414	          -94.902909	           -0.261487	            0.006260	           -0.415085	           -0.041237	            0.847225	           -0.082701	            4.423900	          990.640024	           85.093291	           -0.300678	            0.005535	           -0.735933	           -0.001882	           -0.421335	           -0.036191
            1.224500	          -47.177831	          963.028040	          -93.337710	           -0.261269	            0.006259	           -0.414980	           -0.019643	            0.400969	           -0.038862	            5.858393	          982.544550	           84.500645	           -0.300558	            0.005536	           -0.736098	            0.000685	            0.114859	            0.009878
            1.225000	          -49.183957	          953.457614	          -89.659346	           -0.261189	            0.006259	           -0.415000	           -0.019246	            0.373098	           -0.035085	            9.822151	          974.820802	           85.503793	           -0.300588	            0.005536	           -0.736096	            0.000078	            0.007789	            0.000683
            1.225500	          -51.419866	          942.626691	          -86.306804	           -0.261150	            0.006260	           -0.415114	           -0.042504	            0.779179	           -0.071342	           13.932003	          965.622595	           87.017842	           -0.300682	            0.005535	           -0.736017	           -0.010964	           -0.759907	           -0.068480
            1.226000	          -51.963001	          933.063552	          -84.237041	           -0.261046	            0.006260	           -0.415067	           -0.060091	            1.079006	           -0.097413	           15.597668	          958.446723	           86.991519	           -0.300421	            0.005536	           -0.736184	           -0.024099	           -1.480854	           -0.134407
            1.226500	          -49.944540	          923.690716	          -84.419812	           -0.260865	            0.006259	           -0.415009	           -0.058305	            1.078318	           -0.098552	           13.898729	          948.686560	           85.314941	           -0.300242	            0.005536	           -0.735913	           -0.022835	           -1.558644	           -0.140168
            1.227000	          -46.737801	          914.324402	          -86.072916	           -0.260801	            0.006260	           -0.415113	           -0.029674	            0.580516	           -0.054649	           10.459844	          940.581528	           82.471819	           -0.300019	            0.005536	           -0.735716	           -0.011168	           -1.004221	           -0.088052
